# xmcd
#
# Track frame offsets:
#	150
#	19387
#	41497
#	59389
#	81179
#	101729
#	114023
#	137468
#	159470
#	176350
#	193500
#	222724
#	246358
#	278232
#	307062
#	320560
#	333969
#
# Disc length: 4749 seconds
#
# Revision: 0
# Processed by: cddbd v1.5.1PL2 Copyright (c) Steve Scherf et al.
# Submitted via: audiograbber 1.83.01
#
DISCID=f3128b11
DTITLE=Lenny Kravitz - Blues and Ballads
DYEAR=2005
DGENRE=Blues
TTITLE0=Stillness of heart
TTITLE1=Believe
TTITLE2=Sugar
TTITLE3=What goes around comes around
TTITLE4=Can't get you off my mind
TTITLE5=Flowers for zoe
TTITLE6=Calling all angels
TTITLE7=The difference is why
TTITLE8=Black girl
TTITLE9=Just be a women in my life
TTITLE10=Today
TTITLE11=My precious love
TTITLE12=Sister
TTITLE13=Thinking Of You
TTITLE14=When The Morning Turns To Night
TTITLE15=For Sister Someone
TTITLE16=Destiny
EXTD=2 cd
EXTT0=
EXTT1=
EXTT2=
EXTT3=
EXTT4=
EXTT5=
EXTT6=
EXTT7=
EXTT8=
EXTT9=
EXTT10=
EXTT11=
EXTT12=
EXTT13=
EXTT14=
EXTT15=
EXTT16=
PLAYORDER=
